<svg width="983" height="202" viewBox="0 0 983 202" fill="none" xmlns="http://www.w3.org/2000/svg">
<path d="M13.8755 83.9491C21.5387 83.9491 27.751 77.7364 27.751 70.0727C27.751 62.409 21.5387 56.1963 13.8755 56.1963C6.21228 56.1963 0 62.409 0 70.0727C0 77.7364 6.21228 83.9491 13.8755 83.9491Z" fill="white"/>
<path d="M680.954 134.129H562.414V18.8751H534.186V134.129H472.093V77.6785H425.055V58.8591H490.911V115.314H515.372V0.0556641H581.228V115.314H662.14V107.787H606.631V58.7941L682.434 59.3317L682.3 78.1475L625.445 77.7434V88.968H680.954V134.129Z" fill="white"/>
<path d="M777.394 59.334H701.797V78.1498H777.394V59.334Z" fill="white"/>
<path d="M777.394 116.255H701.797V135.071H777.394V116.255Z" fill="white"/>
<path d="M702.2 87.788L702.016 106.606L749.997 107.075L750.181 88.257L702.2 87.788Z" fill="white"/>
<path d="M835.254 104.026H797.718L797.055 24.5195H859.246V43.3389H816.068L816.342 85.2063H835.254V104.026Z" fill="white"/>
<path d="M870.059 135.072H817.375V116.257H851.245V77.6798H829.605V58.8604H870.059V135.072Z" fill="white"/>
<path d="M902.526 114.847H880.887V136.488H902.526V114.847Z" fill="white"/>
<path d="M982.368 136.482H911.934V58.3896H982.368V136.482ZM963.554 76.5452H930.748V118.322H963.554V76.5452Z" fill="white"/>
<rect x="403.609" y="58.6338" width="19.0037" height="129.365" fill="white"/>
<path d="M401.174 77.7882V58.6346C400.519 58.651 397.597 58.8619 396.961 59.0133C384.65 61.9397 378.004 73.2941 370.658 85.8439C369.668 87.535 368.665 89.2478 367.634 90.9646C363.662 97.5853 359.539 104.433 355.57 109.005C352.222 112.844 350.324 113.511 349.913 113.432C348.695 113.217 347.46 113.11 346.222 113.111H345.948C341.717 113.111 335.41 101.546 330.799 93.0933L330.795 93.0861L330.744 92.9924C323.732 80.1562 315.78 65.5986 302.583 57.4967C299.101 55.3181 295.123 54.0587 291.021 53.8366C286.92 53.6144 282.829 54.4368 279.132 56.2267C266 62.6417 257.19 76.1718 248.682 89.258C241.092 100.948 233.245 113.02 225.708 113.071H225.661C218.57 113.071 211.385 101.542 204.432 90.385L204.375 90.2935C196.233 77.2037 187.808 63.6664 174.517 58.0487C167.926 55.267 160.941 55.3428 155.353 58.2616C140.672 65.9378 131.421 79.4293 123.26 91.3298L123.244 91.3543C113.037 106.255 107.788 112.606 100.36 110.946C96.546 110.094 89.0364 99.1505 83.986 91.7902L83.6888 91.3571C77.0165 81.6254 69.4887 70.6461 60.1869 63.1613C47.9385 53.2789 34.8459 51.1718 21.2734 56.8869C27.9612 61.7999 29.4348 65.6574 28.5755 74.2451C43.4397 67.9743 53.9671 81.2699 68.3333 102.25L68.3609 102.291C77.3866 115.457 85.1856 126.834 96.2539 129.311C116.882 133.931 128.505 116.965 138.757 102.002L138.764 101.991L138.829 101.897C145.427 92.2796 152.214 82.3886 161.302 76.5456C163.091 75.3954 165.249 74.5469 167.208 75.3744C174.993 78.6632 181.809 89.6143 188.4 100.206L188.411 100.223C197.647 115.066 208.109 131.88 225.661 131.88H225.852C243.516 131.757 254.17 115.369 264.474 99.5192C271.585 88.5798 278.937 77.2722 287.398 73.1446C288.252 72.7597 289.189 72.5941 290.124 72.6628C291.059 72.7314 291.962 73.0322 292.751 73.5379C301.706 79.0365 308.103 90.7626 314.286 102.103C322.285 116.78 330.557 131.934 345.934 131.934H346.208C346.259 131.933 346.31 131.934 346.362 131.937C346.454 131.942 346.546 131.952 346.637 131.966C347.802 132.177 348.982 132.283 350.166 132.284C364.806 132.284 374.85 115.546 383.783 100.656C385.009 98.6119 386.487 95.7831 388.041 92.8065C390.431 88.2313 393.003 83.3069 395.124 80.3474C396.493 78.4367 398.823 77.7882 401.174 77.7882Z" fill="white"/>
<path d="M528.662 171.564H523.202V188H519.506V171.564H514.158V168.232H528.662V171.564ZM538.123 168.232V176.184H547.195V168.232H550.891V188H547.195V179.376H538.123V188H534.427V168.232H538.123ZM563.386 171.564V176.184H572.57V179.376H563.386V184.668H574.166V188H559.69V168.232H573.466V171.564H563.386ZM595.453 171.564V176.184H604.637V179.376H595.453V184.668H606.233V188H591.757V168.232H605.533V171.564H595.453ZM625.579 171.564H620.119V188H616.423V171.564H611.075V168.232H625.579V171.564ZM635.041 171.564V176.184H644.225V179.376H635.041V184.668H645.821V188H631.345V168.232H645.121V171.564H635.041ZM663.445 180.132C663.613 180.207 663.828 180.412 664.089 180.748C664.313 181.028 664.612 181.448 664.985 182.008C665.359 182.549 665.816 183.296 666.357 184.248L668.485 188H664.257L661.933 183.968C661.504 183.203 661.121 182.605 660.785 182.176C660.468 181.728 660.207 181.373 660.001 181.112C659.759 180.832 659.544 180.627 659.357 180.496H656.501V188H652.833V168.232H660.281C662.596 168.232 664.397 168.717 665.685 169.688C666.992 170.659 667.645 172.189 667.645 174.28C667.645 175.848 667.3 177.099 666.609 178.032C665.919 178.947 664.864 179.647 663.445 180.132ZM656.501 171.256V177.304H660.449C661.719 177.304 662.596 177.024 663.081 176.464C663.585 175.885 663.837 175.157 663.837 174.28C663.837 173.832 663.781 173.421 663.669 173.048C663.557 172.675 663.361 172.357 663.081 172.096C662.801 171.835 662.428 171.629 661.961 171.48C661.513 171.331 660.953 171.256 660.281 171.256H656.501ZM679.111 188H675.471V168.232H681.603L688.323 185.368H688.491L688.267 168.232H691.907V188H685.775L679.055 170.864H678.887L679.111 188ZM711.345 184.136H702.581L701.265 188H697.317L704.485 168.232H709.917L716.469 188H712.521L711.345 184.136ZM707.117 170.836L703.673 180.916H710.365L707.285 170.836H707.117ZM725.453 184.668H734.805V188H721.757V168.232H725.453V184.668ZM755.525 184.668H764.877V188H751.829V168.232H755.525V184.668ZM774.471 171.564V176.184H783.655V179.376H774.471V184.668H785.251V188H770.775V168.232H784.551V171.564H774.471ZM799.529 179.376V176.324H808.937V188H805.661L805.521 185.956C805.297 186.385 804.998 186.768 804.625 187.104C804.251 187.421 803.822 187.692 803.337 187.916C802.87 188.121 802.366 188.28 801.825 188.392C801.302 188.504 800.77 188.56 800.229 188.56C798.81 188.56 797.522 188.308 796.365 187.804C795.207 187.281 794.209 186.563 793.369 185.648C792.547 184.715 791.913 183.613 791.465 182.344C791.017 181.056 790.793 179.656 790.793 178.144C790.793 176.632 791.017 175.241 791.465 173.972C791.931 172.703 792.585 171.611 793.425 170.696C794.265 169.763 795.273 169.035 796.449 168.512C797.625 167.989 798.922 167.728 800.341 167.728C801.853 167.728 803.122 167.943 804.149 168.372C805.194 168.783 806.043 169.277 806.697 169.856C807.35 170.435 807.835 171.041 808.153 171.676C808.47 172.311 808.666 172.833 808.741 173.244H804.597C804.522 173.039 804.382 172.815 804.177 172.572C803.99 172.311 803.719 172.077 803.365 171.872C803.029 171.648 802.609 171.471 802.105 171.34C801.601 171.191 801.013 171.116 800.341 171.116C799.426 171.116 798.614 171.293 797.905 171.648C797.195 171.984 796.589 172.469 796.085 173.104C795.599 173.72 795.226 174.457 794.965 175.316C794.722 176.175 794.601 177.117 794.601 178.144C794.601 179.171 794.722 180.113 794.965 180.972C795.207 181.831 795.562 182.577 796.029 183.212C796.514 183.828 797.102 184.313 797.793 184.668C798.502 185.004 799.314 185.172 800.229 185.172C800.919 185.172 801.573 185.069 802.189 184.864C802.805 184.64 803.337 184.323 803.785 183.912C804.233 183.501 804.587 182.997 804.849 182.4C805.11 181.803 805.241 181.112 805.241 180.328V179.376H799.529ZM828.493 184.136H819.729L818.413 188H814.465L821.633 168.232H827.065L833.617 188H829.669L828.493 184.136ZM824.265 170.836L820.821 180.916H827.513L824.433 170.836H824.265ZM856.483 182.68C856.408 183.109 856.212 183.66 855.895 184.332C855.578 184.985 855.074 185.629 854.383 186.264C853.711 186.88 852.824 187.421 851.723 187.888C850.64 188.336 849.296 188.56 847.691 188.56C846.272 188.56 844.984 188.308 843.827 187.804C842.67 187.281 841.671 186.563 840.831 185.648C840.01 184.715 839.375 183.613 838.927 182.344C838.479 181.056 838.255 179.656 838.255 178.144C838.255 176.632 838.498 175.241 838.983 173.972C839.487 172.703 840.168 171.611 841.027 170.696C841.904 169.763 842.94 169.035 844.135 168.512C845.348 167.989 846.664 167.728 848.083 167.728C849.595 167.728 850.864 167.943 851.891 168.372C852.936 168.783 853.786 169.277 854.439 169.856C855.092 170.435 855.578 171.041 855.895 171.676C856.212 172.311 856.408 172.833 856.483 173.244H852.339C852.264 173.039 852.124 172.815 851.919 172.572C851.732 172.311 851.462 172.077 851.107 171.872C850.771 171.648 850.351 171.471 849.847 171.34C849.343 171.191 848.755 171.116 848.083 171.116C847.168 171.116 846.338 171.293 845.591 171.648C844.844 171.984 844.21 172.469 843.687 173.104C843.164 173.72 842.763 174.457 842.483 175.316C842.203 176.175 842.063 177.117 842.063 178.144C842.063 179.171 842.184 180.113 842.427 180.972C842.67 181.831 843.024 182.577 843.491 183.212C843.976 183.828 844.564 184.313 845.255 184.668C845.964 185.004 846.776 185.172 847.691 185.172C848.475 185.172 849.138 185.088 849.679 184.92C850.239 184.733 850.706 184.509 851.079 184.248C851.452 183.987 851.732 183.716 851.919 183.436C852.124 183.137 852.264 182.885 852.339 182.68H856.483ZM870.432 180.188V188H866.792V180.188L859.82 168.232H864.076L868.64 176.52L873.26 168.232H877.46L870.432 180.188Z" fill="white"/>
</svg>
