<svg width="290" height="65" viewBox="0 0 290 65" fill="none" xmlns="http://www.w3.org/2000/svg">
<g clip-path="url(#clip0_331_257)">
<g filter="url(#filter0_d_331_257)">
<path d="M4.09628 24.7659C4.90671 24.7661 5.69898 24.5259 6.3729 24.0758C7.04682 23.6257 7.57211 22.9858 7.88233 22.2371C8.19255 21.4884 8.27377 20.6645 8.11571 19.8696C7.95764 19.0748 7.5674 18.3446 6.99435 17.7716C6.42129 17.1985 5.69116 16.8083 4.89629 16.6502C4.10143 16.4922 3.27755 16.5734 2.52884 16.8836C1.78014 17.1938 1.14026 17.7191 0.690121 18.393C0.239985 19.0669 -0.000180575 19.8592 1.01868e-07 20.6696C0.000242288 21.756 0.431891 22.7977 1.20004 23.5659C1.96819 24.334 3.00995 24.7657 4.09628 24.7659Z" fill="white"/>
</g>
<g filter="url(#filter1_d_331_257)">
<path d="M201.023 39.58H166.029V5.55544H157.696V39.58H139.366V22.9153H125.48V17.3574H144.921V34.0248H152.143V0.000244141H171.584V34.0248H195.469V31.8031H179.083V17.34L201.464 17.499L201.425 23.0532L184.641 22.9345V26.2479H201.028L201.023 39.58Z" fill="white"/>
</g>
<g filter="url(#filter2_d_331_257)">
<path d="M229.492 17.4983H207.176V23.0535H229.492V17.4983Z" fill="white"/>
</g>
<g filter="url(#filter3_d_331_257)">
<path d="M229.492 34.302H207.176V39.8572H229.492V34.302Z" fill="white"/>
</g>
<g filter="url(#filter4_d_331_257)">
<path d="M207.292 25.8987L207.238 31.4548L221.398 31.5927L221.452 26.0375L207.292 25.8987Z" fill="white"/>
</g>
<g filter="url(#filter5_d_331_257)">
<path d="M246.57 30.6953H235.489L235.293 7.22485H253.655V12.781H240.906L240.987 25.1401H246.57V30.6953Z" fill="white"/>
</g>
<g filter="url(#filter6_d_331_257)">
<path d="M256.846 39.858H241.293V34.3037H251.292V22.9156H244.903V17.3577H256.846V39.858Z" fill="white"/>
</g>
<g filter="url(#filter7_d_331_257)">
<path d="M266.431 33.887H260.043V40.2753H266.431V33.887Z" fill="white"/>
</g>
<g filter="url(#filter8_d_331_257)">
<path d="M289.999 40.2739H269.207V17.22H289.999V40.2739ZM284.446 22.5797H274.762V34.9124H284.446V22.5797Z" fill="white"/>
</g>
<g filter="url(#filter9_d_331_257)">
<path d="M124.758 17.2932H119.148V55.4825H124.758V17.2932Z" fill="white"/>
</g>
<g filter="url(#filter10_d_331_257)">
<path d="M118.43 22.9476V17.2937C118.237 17.2937 117.375 17.3604 117.187 17.4052C113.553 18.2694 111.591 21.6211 109.422 25.3255C109.129 25.8252 108.834 26.3304 108.529 26.8374C107.357 28.7924 106.139 30.814 104.967 32.1633C103.978 33.2961 103.414 33.4934 103.297 33.4696C102.937 33.4073 102.572 33.3767 102.207 33.3783H102.125C100.877 33.3783 99.0149 29.9644 97.6491 27.4686L97.6336 27.4403C95.5644 23.651 93.2167 19.3537 89.3204 16.9621C88.2926 16.3187 87.1182 15.9469 85.9074 15.8814C84.6966 15.8159 83.489 16.0588 82.3977 16.5876C78.5207 18.4813 75.9198 22.4753 73.4085 26.3386C71.1731 29.7817 68.8564 33.3445 66.632 33.3637H66.6183C64.5244 33.3637 62.4032 29.9598 60.3514 26.6666L60.3341 26.6392C57.9306 22.7749 55.4439 18.7828 51.5203 17.1201C49.5745 16.298 47.5126 16.3217 45.8628 17.1832C41.529 19.4497 38.7975 23.4327 36.3885 26.9498L36.384 26.9571C33.3693 31.3557 31.8209 33.2303 29.6284 32.7406C28.5029 32.4894 26.2858 29.2583 24.7949 27.0859L24.7035 26.958C22.734 24.0849 20.5113 20.8437 17.7607 18.6348C14.1532 15.7133 10.288 15.0903 6.28125 16.7776C8.25631 18.2283 8.69115 19.3665 8.43719 21.9016C12.8221 20.0508 15.9327 23.9753 20.1743 30.169L20.1825 30.1809C22.8463 34.068 25.1484 37.4261 28.4161 38.1579C34.5058 39.5218 37.937 34.5129 40.9635 30.096L40.9827 30.0686C43.0491 27.0539 45.1776 23.9552 48.1083 22.2843C48.3131 22.1509 48.5536 22.0831 48.798 22.0898C48.9907 22.1098 49.179 22.1601 49.3561 22.2387C51.6546 23.2098 53.6662 26.4409 55.612 29.5689V29.5743C58.3389 33.9593 61.4276 38.9198 66.6091 38.9198H66.6657C71.8802 38.8832 75.0246 34.0452 78.0666 29.367C80.1678 26.1376 82.3365 22.7996 84.8341 21.5809C85.0863 21.4671 85.363 21.4182 85.639 21.4384C85.915 21.4587 86.1816 21.5475 86.4145 21.6969C89.0573 23.3203 90.9456 26.7817 92.7718 30.1288C95.1333 34.4617 97.5751 38.9353 102.114 38.9353H102.241C102.268 38.9369 102.295 38.94 102.322 38.9444C102.666 39.0059 103.014 39.0365 103.363 39.0358C107.685 39.0358 110.651 34.0954 113.288 29.6995C113.653 29.0956 114.085 28.2607 114.545 27.3819C115.261 26.0116 116.032 24.5335 116.664 23.6647C117.053 23.1294 117.711 22.9512 118.374 22.9485L118.43 22.9476Z" fill="white"/>
</g>
</g>
<path d="M173.133 61H170.383L169.586 58.5078H165.602L164.812 61H162.078L166.156 49.7969H169.148L173.133 61ZM169.008 56.5703L167.805 52.8047C167.716 52.5234 167.654 52.1875 167.617 51.7969H167.555C167.529 52.125 167.464 52.4505 167.359 52.7734L166.141 56.5703H169.008ZM183.383 56.1484C183.383 59.513 181.815 61.1953 178.68 61.1953C175.638 61.1953 174.117 59.5521 174.117 56.2656V49.7969H176.648V56.2969C176.648 58.1094 177.357 59.0156 178.773 59.0156C180.164 59.0156 180.859 58.1406 180.859 56.3906V49.7969H183.383V56.1484ZM195.023 60.25C193.93 60.8802 192.57 61.1953 190.945 61.1953C189.143 61.1953 187.721 60.6979 186.68 59.7031C185.643 58.7031 185.125 57.3281 185.125 55.5781C185.125 53.8177 185.693 52.3828 186.828 51.2734C187.964 50.1641 189.474 49.6094 191.359 49.6094C192.547 49.6094 193.594 49.7734 194.5 50.1016V52.4688C193.635 51.9688 192.578 51.7188 191.328 51.7188C190.281 51.7188 189.427 52.0599 188.766 52.7422C188.109 53.4193 187.781 54.3255 187.781 55.4609C187.781 56.612 188.076 57.5026 188.664 58.1328C189.258 58.763 190.057 59.0781 191.062 59.0781C191.667 59.0781 192.146 58.9922 192.5 58.8203V56.6328H190.258V54.6172H195.023V60.25ZM206.336 56.1484C206.336 59.513 204.768 61.1953 201.633 61.1953C198.591 61.1953 197.07 59.5521 197.07 56.2656V49.7969H199.602V56.2969C199.602 58.1094 200.31 59.0156 201.727 59.0156C203.117 59.0156 203.812 58.1406 203.812 56.3906V49.7969H206.336V56.1484ZM208.266 60.5703V58.0703C208.719 58.4505 209.211 58.737 209.742 58.9297C210.273 59.1172 210.81 59.2109 211.352 59.2109C211.669 59.2109 211.945 59.1823 212.18 59.125C212.419 59.0677 212.617 58.9896 212.773 58.8906C212.935 58.7865 213.055 58.6667 213.133 58.5312C213.211 58.3906 213.25 58.2396 213.25 58.0781C213.25 57.8594 213.188 57.6641 213.062 57.4922C212.938 57.3203 212.766 57.1615 212.547 57.0156C212.333 56.8698 212.078 56.7292 211.781 56.5938C211.484 56.4583 211.164 56.3203 210.82 56.1797C209.945 55.8151 209.292 55.3698 208.859 54.8438C208.432 54.3177 208.219 53.6823 208.219 52.9375C208.219 52.3542 208.336 51.8542 208.57 51.4375C208.805 51.0156 209.122 50.6693 209.523 50.3984C209.93 50.1276 210.398 49.9297 210.93 49.8047C211.461 49.6745 212.023 49.6094 212.617 49.6094C213.201 49.6094 213.716 49.6458 214.164 49.7188C214.617 49.7865 215.034 49.8932 215.414 50.0391V52.375C215.227 52.2448 215.021 52.1302 214.797 52.0312C214.578 51.9323 214.352 51.8516 214.117 51.7891C213.883 51.7214 213.648 51.6719 213.414 51.6406C213.185 51.6094 212.966 51.5938 212.758 51.5938C212.471 51.5938 212.211 51.6224 211.977 51.6797C211.742 51.7318 211.544 51.8073 211.383 51.9062C211.221 52.0052 211.096 52.125 211.008 52.2656C210.919 52.401 210.875 52.5547 210.875 52.7266C210.875 52.9141 210.924 53.0833 211.023 53.2344C211.122 53.3802 211.263 53.5208 211.445 53.6562C211.628 53.7865 211.849 53.9167 212.109 54.0469C212.37 54.1719 212.664 54.3021 212.992 54.4375C213.44 54.625 213.841 54.8255 214.195 55.0391C214.555 55.2474 214.862 55.4844 215.117 55.75C215.372 56.0156 215.568 56.3203 215.703 56.6641C215.839 57.0026 215.906 57.3984 215.906 57.8516C215.906 58.4766 215.786 59.0026 215.547 59.4297C215.312 59.8516 214.992 60.1953 214.586 60.4609C214.18 60.7214 213.706 60.9089 213.164 61.0234C212.628 61.138 212.06 61.1953 211.461 61.1953C210.846 61.1953 210.26 61.1432 209.703 61.0391C209.151 60.9349 208.672 60.7786 208.266 60.5703ZM225.617 51.8516H222.422V61H219.891V51.8516H216.711V49.7969H225.617V51.8516ZM236.766 49.5469V61H234.305V52.3281C234.169 52.4479 234.008 52.5625 233.82 52.6719C233.638 52.776 233.443 52.8724 233.234 52.9609C233.026 53.0443 232.81 53.1172 232.586 53.1797C232.362 53.237 232.141 53.2786 231.922 53.3047V51.2266C232.562 51.0391 233.167 50.7995 233.734 50.5078C234.302 50.2161 234.815 49.8958 235.273 49.5469H236.766ZM244.008 61.1953C241.341 61.1953 240.008 59.3229 240.008 55.5781C240.008 53.6354 240.367 52.1562 241.086 51.1406C241.81 50.1198 242.857 49.6094 244.227 49.6094C246.831 49.6094 248.133 51.513 248.133 55.3203C248.133 57.2161 247.776 58.6693 247.062 59.6797C246.354 60.6901 245.336 61.1953 244.008 61.1953ZM244.117 51.4922C243.049 51.4922 242.516 52.8333 242.516 55.5156C242.516 58.0417 243.039 59.3047 244.086 59.3047C245.107 59.3047 245.617 58.0026 245.617 55.3984C245.617 52.7943 245.117 51.4922 244.117 51.4922ZM264.648 61.1797C264.372 61.1797 264.109 61.1432 263.859 61.0703C263.615 60.9974 263.38 60.8984 263.156 60.7734C262.938 60.6484 262.729 60.5026 262.531 60.3359C262.333 60.1641 262.146 59.9818 261.969 59.7891C261.776 59.9453 261.544 60.1068 261.273 60.2734C261.003 60.4401 260.695 60.5911 260.352 60.7266C260.013 60.8568 259.638 60.9635 259.227 61.0469C258.815 61.1354 258.375 61.1797 257.906 61.1797C257.297 61.1797 256.732 61.1068 256.211 60.9609C255.695 60.8151 255.25 60.599 254.875 60.3125C254.5 60.0208 254.206 59.6615 253.992 59.2344C253.784 58.8073 253.68 58.3125 253.68 57.75C253.68 57.3073 253.758 56.9141 253.914 56.5703C254.076 56.2214 254.284 55.9167 254.539 55.6562C254.794 55.3958 255.083 55.1719 255.406 54.9844C255.729 54.7969 256.057 54.6406 256.391 54.5156C256.229 54.3906 256.065 54.2474 255.898 54.0859C255.737 53.9193 255.591 53.7396 255.461 53.5469C255.331 53.349 255.224 53.1354 255.141 52.9062C255.062 52.6771 255.023 52.4349 255.023 52.1797C255.023 51.7682 255.107 51.4036 255.273 51.0859C255.44 50.7682 255.672 50.5 255.969 50.2812C256.271 50.0625 256.63 49.8958 257.047 49.7812C257.464 49.6667 257.922 49.6094 258.422 49.6094C258.901 49.6094 259.339 49.6693 259.734 49.7891C260.135 49.9089 260.479 50.0755 260.766 50.2891C261.052 50.5026 261.273 50.7604 261.43 51.0625C261.586 51.3594 261.664 51.6875 261.664 52.0469C261.664 52.625 261.49 53.1276 261.141 53.5547C260.797 53.9766 260.31 54.3203 259.68 54.5859C259.93 54.7005 260.169 54.8307 260.398 54.9766C260.628 55.1224 260.852 55.2891 261.07 55.4766C261.289 55.6641 261.503 55.8776 261.711 56.1172C261.919 56.3516 262.125 56.6224 262.328 56.9297C262.755 56.3932 263.06 55.8229 263.242 55.2188C263.43 54.6094 263.523 53.9766 263.523 53.3203C263.523 53.1224 263.51 52.9323 263.484 52.75C263.464 52.5677 263.427 52.3984 263.375 52.2422H265.477C265.534 52.4089 265.576 52.5703 265.602 52.7266C265.628 52.8828 265.641 53.0677 265.641 53.2812C265.641 53.7865 265.586 54.2786 265.477 54.7578C265.372 55.237 265.224 55.6953 265.031 56.1328C264.839 56.5703 264.604 56.9844 264.328 57.375C264.057 57.7656 263.758 58.1302 263.43 58.4688C263.685 58.7344 263.948 58.9401 264.219 59.0859C264.49 59.2266 264.745 59.2969 264.984 59.2969C265.234 59.2969 265.49 59.2708 265.75 59.2188C266.01 59.1615 266.237 59.0833 266.43 58.9844V60.8438C266.143 60.9583 265.859 61.0417 265.578 61.0938C265.302 61.151 264.992 61.1797 264.648 61.1797ZM258.031 59.3125C258.339 59.3125 258.628 59.2839 258.898 59.2266C259.169 59.1641 259.424 59.0833 259.664 58.9844C259.904 58.8854 260.125 58.7708 260.328 58.6406C260.536 58.5104 260.727 58.375 260.898 58.2344C260.633 57.8177 260.37 57.4661 260.109 57.1797C259.849 56.888 259.591 56.6406 259.336 56.4375C259.081 56.2292 258.826 56.0547 258.57 55.9141C258.32 55.7734 258.068 55.6458 257.812 55.5312C257.599 55.6354 257.393 55.7526 257.195 55.8828C257.003 56.0078 256.831 56.1562 256.68 56.3281C256.529 56.4948 256.406 56.6875 256.312 56.9062C256.224 57.1198 256.18 57.3672 256.18 57.6484C256.18 57.8984 256.224 58.125 256.312 58.3281C256.401 58.5312 256.526 58.7057 256.688 58.8516C256.854 58.9974 257.049 59.112 257.273 59.1953C257.503 59.2734 257.755 59.3125 258.031 59.3125ZM259.477 52.2188C259.477 52.0677 259.448 51.9323 259.391 51.8125C259.333 51.6927 259.255 51.5938 259.156 51.5156C259.057 51.4323 258.945 51.3698 258.82 51.3281C258.695 51.2812 258.562 51.2578 258.422 51.2578C258.25 51.2578 258.091 51.2839 257.945 51.3359C257.805 51.388 257.68 51.4583 257.57 51.5469C257.466 51.6354 257.385 51.7422 257.328 51.8672C257.271 51.987 257.242 52.1172 257.242 52.2578C257.242 52.5495 257.333 52.8177 257.516 53.0625C257.698 53.3073 257.924 53.5052 258.195 53.6562C258.367 53.5938 258.529 53.5208 258.68 53.4375C258.836 53.3542 258.971 53.2552 259.086 53.1406C259.206 53.026 259.299 52.8932 259.367 52.7422C259.44 52.5911 259.477 52.4167 259.477 52.2188ZM277.609 49.5469V61H275.148V52.3281C275.013 52.4479 274.852 52.5625 274.664 52.6719C274.482 52.776 274.286 52.8724 274.078 52.9609C273.87 53.0443 273.654 53.1172 273.43 53.1797C273.206 53.237 272.984 53.2786 272.766 53.3047V51.2266C273.406 51.0391 274.01 50.7995 274.578 50.5078C275.146 50.2161 275.659 49.8958 276.117 49.5469H277.609ZM286.812 49.5469V61H284.352V52.3281C284.216 52.4479 284.055 52.5625 283.867 52.6719C283.685 52.776 283.49 52.8724 283.281 52.9609C283.073 53.0443 282.857 53.1172 282.633 53.1797C282.409 53.237 282.188 53.2786 281.969 53.3047V51.2266C282.609 51.0391 283.214 50.7995 283.781 50.5078C284.349 50.2161 284.862 49.8958 285.32 49.5469H286.812Z" fill="white"/>
<defs>
<filter id="filter0_d_331_257" x="-1.00489" y="14.2877" width="10.2041" height="10.4782" filterUnits="userSpaceOnUse" color-interpolation-filters="sRGB">
<feFlood flood-opacity="0" result="BackgroundImageFix"/>
<feColorMatrix in="SourceAlpha" type="matrix" values="0 0 0 0 0 0 0 0 0 0 0 0 0 0 0 0 0 0 127 0" result="hardAlpha"/>
<feOffset dy="-1.27895"/>
<feGaussianBlur stdDeviation="0.502443"/>
<feComposite in2="hardAlpha" operator="out"/>
<feColorMatrix type="matrix" values="0 0 0 0 0 0 0 0 0 0 0 0 0 0 0 0 0 0 0.59 0"/>
<feBlend mode="normal" in2="BackgroundImageFix" result="effect1_dropShadow_331_257"/>
<feBlend mode="normal" in="SourceGraphic" in2="effect1_dropShadow_331_257" result="shape"/>
</filter>
<filter id="filter1_d_331_257" x="124.476" y="-2.28359" width="77.9937" height="41.8637" filterUnits="userSpaceOnUse" color-interpolation-filters="sRGB">
<feFlood flood-opacity="0" result="BackgroundImageFix"/>
<feColorMatrix in="SourceAlpha" type="matrix" values="0 0 0 0 0 0 0 0 0 0 0 0 0 0 0 0 0 0 127 0" result="hardAlpha"/>
<feOffset dy="-1.27895"/>
<feGaussianBlur stdDeviation="0.502443"/>
<feComposite in2="hardAlpha" operator="out"/>
<feColorMatrix type="matrix" values="0 0 0 0 0 0 0 0 0 0 0 0 0 0 0 0 0 0 0.59 0"/>
<feBlend mode="normal" in2="BackgroundImageFix" result="effect1_dropShadow_331_257"/>
<feBlend mode="normal" in="SourceGraphic" in2="effect1_dropShadow_331_257" result="shape"/>
</filter>
<filter id="filter2_d_331_257" x="206.171" y="15.2145" width="24.3264" height="7.83901" filterUnits="userSpaceOnUse" color-interpolation-filters="sRGB">
<feFlood flood-opacity="0" result="BackgroundImageFix"/>
<feColorMatrix in="SourceAlpha" type="matrix" values="0 0 0 0 0 0 0 0 0 0 0 0 0 0 0 0 0 0 127 0" result="hardAlpha"/>
<feOffset dy="-1.27895"/>
<feGaussianBlur stdDeviation="0.502443"/>
<feComposite in2="hardAlpha" operator="out"/>
<feColorMatrix type="matrix" values="0 0 0 0 0 0 0 0 0 0 0 0 0 0 0 0 0 0 0.59 0"/>
<feBlend mode="normal" in2="BackgroundImageFix" result="effect1_dropShadow_331_257"/>
<feBlend mode="normal" in="SourceGraphic" in2="effect1_dropShadow_331_257" result="shape"/>
</filter>
<filter id="filter3_d_331_257" x="206.171" y="32.0182" width="24.3264" height="7.83901" filterUnits="userSpaceOnUse" color-interpolation-filters="sRGB">
<feFlood flood-opacity="0" result="BackgroundImageFix"/>
<feColorMatrix in="SourceAlpha" type="matrix" values="0 0 0 0 0 0 0 0 0 0 0 0 0 0 0 0 0 0 127 0" result="hardAlpha"/>
<feOffset dy="-1.27895"/>
<feGaussianBlur stdDeviation="0.502443"/>
<feComposite in2="hardAlpha" operator="out"/>
<feColorMatrix type="matrix" values="0 0 0 0 0 0 0 0 0 0 0 0 0 0 0 0 0 0 0.59 0"/>
<feBlend mode="normal" in2="BackgroundImageFix" result="effect1_dropShadow_331_257"/>
<feBlend mode="normal" in="SourceGraphic" in2="effect1_dropShadow_331_257" result="shape"/>
</filter>
<filter id="filter4_d_331_257" x="206.233" y="23.6148" width="16.2234" height="7.97792" filterUnits="userSpaceOnUse" color-interpolation-filters="sRGB">
<feFlood flood-opacity="0" result="BackgroundImageFix"/>
<feColorMatrix in="SourceAlpha" type="matrix" values="0 0 0 0 0 0 0 0 0 0 0 0 0 0 0 0 0 0 127 0" result="hardAlpha"/>
<feOffset dy="-1.27895"/>
<feGaussianBlur stdDeviation="0.502443"/>
<feComposite in2="hardAlpha" operator="out"/>
<feColorMatrix type="matrix" values="0 0 0 0 0 0 0 0 0 0 0 0 0 0 0 0 0 0 0.59 0"/>
<feBlend mode="normal" in2="BackgroundImageFix" result="effect1_dropShadow_331_257"/>
<feBlend mode="normal" in="SourceGraphic" in2="effect1_dropShadow_331_257" result="shape"/>
</filter>
<filter id="filter5_d_331_257" x="234.288" y="4.94102" width="20.3718" height="25.7543" filterUnits="userSpaceOnUse" color-interpolation-filters="sRGB">
<feFlood flood-opacity="0" result="BackgroundImageFix"/>
<feColorMatrix in="SourceAlpha" type="matrix" values="0 0 0 0 0 0 0 0 0 0 0 0 0 0 0 0 0 0 127 0" result="hardAlpha"/>
<feOffset dy="-1.27895"/>
<feGaussianBlur stdDeviation="0.502443"/>
<feComposite in2="hardAlpha" operator="out"/>
<feColorMatrix type="matrix" values="0 0 0 0 0 0 0 0 0 0 0 0 0 0 0 0 0 0 0.59 0"/>
<feBlend mode="normal" in2="BackgroundImageFix" result="effect1_dropShadow_331_257"/>
<feBlend mode="normal" in="SourceGraphic" in2="effect1_dropShadow_331_257" result="shape"/>
</filter>
<filter id="filter6_d_331_257" x="240.288" y="15.0738" width="17.5628" height="24.7841" filterUnits="userSpaceOnUse" color-interpolation-filters="sRGB">
<feFlood flood-opacity="0" result="BackgroundImageFix"/>
<feColorMatrix in="SourceAlpha" type="matrix" values="0 0 0 0 0 0 0 0 0 0 0 0 0 0 0 0 0 0 127 0" result="hardAlpha"/>
<feOffset dy="-1.27895"/>
<feGaussianBlur stdDeviation="0.502443"/>
<feComposite in2="hardAlpha" operator="out"/>
<feColorMatrix type="matrix" values="0 0 0 0 0 0 0 0 0 0 0 0 0 0 0 0 0 0 0.59 0"/>
<feBlend mode="normal" in2="BackgroundImageFix" result="effect1_dropShadow_331_257"/>
<feBlend mode="normal" in="SourceGraphic" in2="effect1_dropShadow_331_257" result="shape"/>
</filter>
<filter id="filter7_d_331_257" x="259.038" y="31.6031" width="8.3982" height="8.67226" filterUnits="userSpaceOnUse" color-interpolation-filters="sRGB">
<feFlood flood-opacity="0" result="BackgroundImageFix"/>
<feColorMatrix in="SourceAlpha" type="matrix" values="0 0 0 0 0 0 0 0 0 0 0 0 0 0 0 0 0 0 127 0" result="hardAlpha"/>
<feOffset dy="-1.27895"/>
<feGaussianBlur stdDeviation="0.502443"/>
<feComposite in2="hardAlpha" operator="out"/>
<feColorMatrix type="matrix" values="0 0 0 0 0 0 0 0 0 0 0 0 0 0 0 0 0 0 0.59 0"/>
<feBlend mode="normal" in2="BackgroundImageFix" result="effect1_dropShadow_331_257"/>
<feBlend mode="normal" in="SourceGraphic" in2="effect1_dropShadow_331_257" result="shape"/>
</filter>
<filter id="filter8_d_331_257" x="268.202" y="14.9361" width="22.8018" height="25.3378" filterUnits="userSpaceOnUse" color-interpolation-filters="sRGB">
<feFlood flood-opacity="0" result="BackgroundImageFix"/>
<feColorMatrix in="SourceAlpha" type="matrix" values="0 0 0 0 0 0 0 0 0 0 0 0 0 0 0 0 0 0 127 0" result="hardAlpha"/>
<feOffset dy="-1.27895"/>
<feGaussianBlur stdDeviation="0.502443"/>
<feComposite in2="hardAlpha" operator="out"/>
<feColorMatrix type="matrix" values="0 0 0 0 0 0 0 0 0 0 0 0 0 0 0 0 0 0 0.59 0"/>
<feBlend mode="normal" in2="BackgroundImageFix" result="effect1_dropShadow_331_257"/>
<feBlend mode="normal" in="SourceGraphic" in2="effect1_dropShadow_331_257" result="shape"/>
</filter>
<filter id="filter9_d_331_257" x="118.144" y="15.0094" width="7.61988" height="40.473" filterUnits="userSpaceOnUse" color-interpolation-filters="sRGB">
<feFlood flood-opacity="0" result="BackgroundImageFix"/>
<feColorMatrix in="SourceAlpha" type="matrix" values="0 0 0 0 0 0 0 0 0 0 0 0 0 0 0 0 0 0 127 0" result="hardAlpha"/>
<feOffset dy="-1.27895"/>
<feGaussianBlur stdDeviation="0.502443"/>
<feComposite in2="hardAlpha" operator="out"/>
<feColorMatrix type="matrix" values="0 0 0 0 0 0 0 0 0 0 0 0 0 0 0 0 0 0 0.59 0"/>
<feBlend mode="normal" in2="BackgroundImageFix" result="effect1_dropShadow_331_257"/>
<feBlend mode="normal" in="SourceGraphic" in2="effect1_dropShadow_331_257" result="shape"/>
</filter>
<filter id="filter10_d_331_257" x="5.27636" y="13.4776" width="114.159" height="25.5583" filterUnits="userSpaceOnUse" color-interpolation-filters="sRGB">
<feFlood flood-opacity="0" result="BackgroundImageFix"/>
<feColorMatrix in="SourceAlpha" type="matrix" values="0 0 0 0 0 0 0 0 0 0 0 0 0 0 0 0 0 0 127 0" result="hardAlpha"/>
<feOffset dy="-1.3703"/>
<feGaussianBlur stdDeviation="0.502443"/>
<feComposite in2="hardAlpha" operator="out"/>
<feColorMatrix type="matrix" values="0 0 0 0 0 0 0 0 0 0 0 0 0 0 0 0 0 0 0.59 0"/>
<feBlend mode="normal" in2="BackgroundImageFix" result="effect1_dropShadow_331_257"/>
<feBlend mode="normal" in="SourceGraphic" in2="effect1_dropShadow_331_257" result="shape"/>
</filter>
<clipPath id="clip0_331_257">
<rect width="290" height="55.4825" fill="white"/>
</clipPath>
</defs>
</svg>
